<svg width="55" height="66" viewBox="0 0 55 66" fill="none" xmlns="http://www.w3.org/2000/svg">
<path d="M31.5043 12.1989L29.4362 13.0606C28.5744 -3.48481 17.5441 -1.76133 14.2695 16.8523L12.029 17.714C14.5943 2.57869 22.8871 -3.58358 27.885 2.06889C33.3348 -0.886685 38.2259 2.71972 39.0876 11.1648C38.1921 9.92557 37.624 9.39999 36.5024 8.75191C35.6407 2.06889 31.784 1.97627 28.9741 3.58146C30.1587 5.57882 31.0593 8.43328 31.5043 12.1989Z" fill="#004F88"/>
<path d="M25.5325 4.10095C22.172 9.36544 20.8072 13.1579 19.44 19.9924L21.5081 20.8541C22.3038 13.7959 23.6309 10.264 26.5907 5.54405C26.7521 5.28676 26.7849 4.96132 26.6385 4.6952C26.4225 4.3024 26.2051 4.09083 25.8442 3.9768C25.7258 3.93935 25.5994 3.99621 25.5325 4.10095Z" fill="#004F88"/>
<path d="M14.0972 57.5264L2.28035 55.163C1.65626 55.0382 1.236 54.4507 1.31951 53.8197L5.72741 20.5156C5.78698 20.0655 6.09386 19.6868 6.52184 19.5352L14.0972 16.8523L17.0271 18.5757L23.5763 35.6382H26.3339L26.831 14.5943C26.843 14.0872 27.1704 13.6416 27.6507 13.4786L36.5024 10.4754L34.0979 61.1421C34.0935 61.2346 34.0077 61.3014 33.917 61.283L23.921 59.2499L16.5101 40.981H14.0972V57.5264Z" fill="url(#paint0_linear_165_101)"/>
<path d="M40.6388 14.2671L36.5024 10.5132L34.0895 61.1836L42.8793 58.2158L50.9262 57.3217C51.612 57.2455 52.0948 56.6114 51.9858 55.93L45.4611 15.1508C45.3647 14.5479 44.8335 14.1117 44.2234 14.1343L40.6388 14.2671Z" fill="#008AEE"/>
<path d="M24.5338 22.2695L17.0271 18.6136L23.6402 35.8484H26.6786V26.9699L24.5338 22.2695Z" fill="#008AEE"/>
<path d="M16.51 40.981H14.0972V57.5643L22.5422 55.6306L16.51 40.981Z" fill="#008AEE"/>
<path d="M41.8452 51.3219L34.6066 60.6287L42.7043 56.6362L51.3244 56.8371L43.224 50.9772L41.3282 14.6118H40.6388L41.8452 51.3219Z" fill="#004F88"/>
<path d="M34.1002 64.0055L0.478644 56.8647C0.290755 56.8248 0.113831 56.9681 0.113831 57.1602V58.5059C0.113831 58.6486 0.213611 58.7718 0.353137 58.8014L34.1723 65.9842C34.221 65.9946 34.2716 65.9927 34.3195 65.9788L54.2669 60.1732C54.3959 60.1357 54.4845 60.0175 54.4845 59.8832V58.6971C54.4845 58.4967 54.2929 58.3518 54.1001 58.4065L34.3905 63.9958C34.296 64.0226 34.1963 64.026 34.1002 64.0055Z" fill="url(#paint1_linear_165_101)"/>
<defs>
<linearGradient id="paint0_linear_165_101" x1="1.17108" y1="10.3409" x2="36.6748" y2="61.3559" gradientUnits="userSpaceOnUse">
<stop stop-color="#008AEE"/>
<stop offset="1" stop-color="#004F88"/>
</linearGradient>
<linearGradient id="paint1_linear_165_101" x1="0.113831" y1="62.1488" x2="54.4845" y2="62.1488" gradientUnits="userSpaceOnUse">
<stop stop-color="#008AEE"/>
<stop offset="1" stop-color="#004F88"/>
</linearGradient>
</defs>
</svg>
